<svg width="100" height="100" viewBox="0 0 100 100" fill="none" xmlns="http://www.w3.org/2000/svg">
<g clip-path="url(#clip0_1_2)">
<rect width="100" height="100" fill="white"/>
<rect x="34" y="1" width="32" height="32" fill="#2BE0A1"/>
<rect x="67" y="34" width="32" height="32" fill="#2BE0A1"/>
<rect x="67" y="67" width="32" height="32" fill="#2BE0A1"/>
<rect x="34" y="67" width="32" height="32" fill="#2BE0A1"/>
<rect x="1" y="67" width="32" height="32" fill="#2BE0A1"/>
<line x1="100" y1="67" x2="-1.01993e-08" y2="67" stroke="white" stroke-width="2"/>
<line x1="100" y1="100" x2="-1.01993e-08" y2="100" stroke="white" stroke-width="2"/>
<line x1="100" y1="34" x2="-1.05676e-08" y2="34" stroke="white" stroke-width="2"/>
<line x1="100" y1="1" x2="-1.05676e-08" y2="1" stroke="white" stroke-width="2"/>
<line x1="67" y1="-3.35121e-08" x2="67" y2="100" stroke="white" stroke-width="2"/>
<line x1="34" y1="-3.31438e-08" x2="34" y2="100" stroke="white" stroke-width="2"/>
<line x1="1" y1="-3.31438e-08" x2="1.00001" y2="100" stroke="white" stroke-width="2"/>
<line x1="100" y1="-3.35121e-08" x2="100" y2="100" stroke="white" stroke-width="2"/>
</g>
<defs>
<clipPath id="clip0_1_2">
<rect width="100" height="100" fill="white"/>
</clipPath>
</defs>
</svg>
